<?xml version="1.0" standalone="no"?>
<!DOCTYPE svg PUBLIC "-//W3C//DTD SVG 20010904//EN"
 "http://www.w3.org/TR/2001/REC-SVG-20010904/DTD/svg10.dtd">
<svg version="1.0" xmlns="http://www.w3.org/2000/svg"
 width="100.000000pt" height="100.000000pt" viewBox="0 0 100.000000 100.000000"
 preserveAspectRatio="xMidYMid meet">
<metadata>
Created by potrace 1.14, written by Peter Selinger 2001-2017
</metadata>
<g transform="translate(0.000000,100.000000) scale(0.100000,-0.100000)"
fill="#000000" stroke="none">
<path d="M435 724 c-109 -40 -184 -187 -145 -288 8 -21 5 -30 -14 -48 -13 -13
-36 -31 -52 -40 -70 -41 -57 -82 27 -84 l54 -1 -55 6 c-47 5 -55 9 -58 28 -2
17 6 26 35 39 21 10 44 26 51 36 16 21 35 23 51 4 6 -7 22 -11 36 -8 20 3 27
-1 35 -22 5 -14 14 -26 20 -26 6 0 10 -10 8 -23 -2 -17 -11 -23 -38 -27 -19
-3 10 -6 65 -7 131 -3 179 13 239 77 25 26 53 50 63 53 17 4 17 5 -1 6 -13 1
-16 6 -11 19 4 9 11 40 15 67 4 28 8 44 9 37 1 -9 5 -10 20 -1 22 15 49 6 58
-18 4 -10 15 -24 25 -31 21 -15 24 -45 5 -60 -7 -6 -30 -12 -52 -15 l-40 -4
42 -1 c72 -3 94 41 48 94 -14 16 -31 35 -37 42 -6 8 -21 12 -35 9 -25 -5 -63
31 -63 60 0 8 -21 36 -46 63 -70 75 -165 98 -259 64z m70 -18 c10 -9 12 -26 8
-50 -5 -30 -3 -36 11 -36 19 0 76 52 76 70 0 6 -14 -5 -31 -25 -17 -19 -35
-35 -39 -35 -4 0 -7 20 -6 45 1 40 4 45 24 45 22 0 102 -35 102 -46 0 -2 -7
-16 -16 -29 -9 -13 -13 -29 -9 -35 3 -5 -5 -25 -18 -42 -33 -44 -60 -98 -53
-106 4 -3 14 13 23 36 9 23 20 42 25 42 4 0 8 6 8 14 0 7 10 20 22 28 19 13
20 18 10 30 -10 12 -8 18 8 33 17 15 22 16 36 4 69 -57 70 -224 2 -296 -28
-30 -34 -29 -42 9 -8 41 -23 58 -52 58 -13 0 -28 8 -34 18 -10 15 -10 15 -8
-3 2 -14 12 -21 35 -23 25 -3 34 -10 42 -34 18 -52 14 -65 -29 -82 -36 -14
-130 -23 -130 -11 0 2 11 15 25 29 33 34 33 74 0 82 -14 3 -29 13 -33 21 -5 8
-27 17 -50 20 -26 4 -42 11 -42 19 0 8 -7 14 -16 14 -9 0 -12 5 -8 12 5 8 13
5 25 -10 23 -29 29 -28 28 6 0 15 -3 21 -6 14 -4 -10 -8 -10 -19 -1 -7 6 -21
9 -29 5 -19 -7 -20 -36 0 -36 8 0 15 -5 15 -11 0 -11 -15 -4 -42 19 -35 29
-11 140 39 184 28 26 74 32 98 14 11 -8 17 -18 13 -22 -4 -4 -14 -1 -22 5 -22
18 -56 -3 -56 -35 0 -23 2 -24 37 -18 29 5 39 3 50 -11 11 -17 13 -17 13 -2 0
25 -35 40 -61 27 -24 -13 -34 -7 -25 15 4 12 14 14 41 9 25 -4 35 -3 35 7 0
18 -30 49 -49 50 -9 0 -3 7 14 14 38 18 43 18 60 1z m-127 -310 c4 -20 -24
-21 -44 -2 -8 8 -18 26 -24 40 l-9 26 37 -24 c20 -13 38 -31 40 -40z m78 10
c3 -8 16 -17 30 -20 32 -8 31 -33 -3 -68 -28 -29 -43 -35 -43 -17 0 6 -11 25
-25 43 -14 18 -25 43 -25 54 0 18 6 22 30 22 17 0 33 -6 36 -14z"/>
<path d="M445 550 c-12 -4 -27 -16 -35 -26 -14 -18 -14 -18 6 -1 11 9 28 17
37 17 9 0 19 5 22 10 7 12 -2 12 -30 0z"/>
</g>
</svg>
